<svg width="333" height="267" viewBox="0 0 333 267" fill="none" xmlns="http://www.w3.org/2000/svg">
<g filter="url(#filter0_dd_1_2)">
<path d="M85.2064 154.676C80.5837 137.424 78.2724 128.798 79.8642 121.309C81.2645 114.722 84.7142 108.746 89.7191 104.24C95.4089 99.117 104.035 96.8056 121.287 92.183L147.324 85.2064C164.576 80.5837 173.202 78.2724 180.691 79.8642C187.278 81.2645 193.254 84.7142 197.76 89.7191C202.883 95.4089 205.194 104.035 209.817 121.287L216.794 147.324C221.416 164.576 223.728 173.202 222.136 180.691C220.736 187.278 217.286 193.254 212.281 197.76C206.591 202.883 197.965 205.194 180.713 209.817L154.676 216.794C137.424 221.416 128.798 223.728 121.309 222.136C114.722 220.736 108.746 217.286 104.24 212.281C99.1169 206.591 96.8056 197.965 92.1829 180.713L85.2064 154.676Z" fill="#1B33CD"/>
<path d="M85.2064 154.676C80.5837 137.424 78.2724 128.798 79.8642 121.309C81.2645 114.722 84.7142 108.746 89.7191 104.24C95.4089 99.117 104.035 96.8056 121.287 92.183L147.324 85.2064C164.576 80.5837 173.202 78.2724 180.691 79.8642C187.278 81.2645 193.254 84.7142 197.76 89.7191C202.883 95.4089 205.194 104.035 209.817 121.287L216.794 147.324C221.416 164.576 223.728 173.202 222.136 180.691C220.736 187.278 217.286 193.254 212.281 197.76C206.591 202.883 197.965 205.194 180.713 209.817L154.676 216.794C137.424 221.416 128.798 223.728 121.309 222.136C114.722 220.736 108.746 217.286 104.24 212.281C99.1169 206.591 96.8056 197.965 92.1829 180.713L85.2064 154.676Z" fill="url(#paint0_linear_1_2)" fill-opacity="0.4" style="mix-blend-mode:soft-light"/>
</g>
<path d="M183.042 146.399C183.042 163.741 151.49 157.881 137.328 183C119.655 183 119.042 163.741 119.042 146.399C119.042 129.058 133.369 115 151.042 115C168.715 115 183.042 129.058 183.042 146.399ZM122.961 146.399C121.599 162.433 171.94 169.4 162.144 183C178.757 183 175.553 162.7 175.553 146.399C175.553 130.098 130.406 145.753 143.206 122.771C132.544 129.376 143.236 141.589 122.961 146.399Z" fill="white"/>
<g clip-path="url(#clip0_1_2)">
<path d="M199.214 146.744C199.214 145.512 199.526 144.588 200.15 143.973C200.774 143.316 201.564 142.987 202.521 142.987C203.478 142.987 204.247 143.275 204.83 143.849V177.906C205.329 177.865 206.119 177.844 207.201 177.844C209.026 177.88 218.469 178.604 221.069 179.887H209.192C207.57 179.887 205.62 180.143 204.83 180.184V181.478C204.83 185.419 203.977 188.519 202.271 190.777C200.566 193.035 198.278 194.164 195.407 194.164C193.743 194.164 192.266 193.63 190.977 192.563C189.687 191.496 189.042 189.792 189.042 187.451C189.042 185.111 189.978 183.202 191.85 181.724C193.681 180.246 196.135 179.199 199.214 178.583V146.744ZM195.282 191.762C196.614 191.762 197.612 191.208 198.278 190.1C198.902 188.991 199.214 186.959 199.214 184.003V180.923C194.554 182.032 192.225 184.27 192.225 187.636C192.225 190.387 193.244 191.762 195.282 191.762ZM199.463 133.565C198.756 132.867 198.402 132.005 198.402 130.978C198.402 129.952 198.756 129.09 199.463 128.392C200.17 127.653 201.044 127.283 202.084 127.283C203.124 127.283 203.998 127.653 204.705 128.392C205.454 129.09 205.828 129.952 205.828 130.978C205.828 132.005 205.454 132.867 204.705 133.565C203.998 134.263 203.124 134.612 202.084 134.612C201.044 134.612 200.17 134.263 199.463 133.565ZM228.432 146.744C228.432 145.512 228.785 144.588 229.493 143.973C230.2 143.316 231.053 142.987 232.051 142.987C233.049 142.987 233.84 143.275 234.422 143.849V161.524C234.422 163.864 234.797 165.63 235.545 166.821C236.294 168.011 237.313 168.606 238.603 168.606C239.893 168.606 241.141 167.867 242.347 166.389C243.761 164.624 244.469 161.36 244.469 156.597C244.51 156.351 244.822 156.228 245.405 156.228C246.153 156.228 246.528 157.316 246.528 159.492C246.528 162.982 245.758 165.774 244.219 167.867C242.721 169.961 240.6 171.008 237.854 171.008C233.486 171.008 230.616 169.058 229.243 165.158C227.621 169.058 224.646 171.008 220.32 171.008C217.741 171.008 215.661 170.249 214.08 168.73C212.499 167.17 211.709 164.952 211.709 162.078V146.744C211.709 145.512 212.021 144.588 212.645 143.973C213.269 143.316 214.059 142.987 215.016 142.987C215.973 142.987 216.742 143.275 217.325 143.849V161.524C217.325 166.41 218.573 168.853 221.069 168.853C222.941 168.853 224.625 167.744 226.123 165.527C227.662 163.31 228.432 160.19 228.432 156.166V146.744ZM278.311 156.228C279.06 156.228 279.434 157.316 279.434 159.492C279.434 162.982 278.664 165.774 277.125 167.867C275.628 169.961 273.423 171.008 270.511 171.008C267.599 171.008 265.352 170.023 263.772 168.052C262.232 166.082 261.463 163.29 261.463 159.677V152.471C261.463 147.586 260.215 145.143 257.719 145.143C255.514 145.143 253.704 146.251 252.29 148.468C250.876 150.685 250.168 154.401 250.168 159.615V170.146C249.752 170.721 249.024 171.008 247.984 171.008C246.944 171.008 246.112 170.7 245.488 170.085C244.864 169.428 244.552 168.483 244.552 167.252V143.849C244.968 143.275 245.759 142.987 246.924 142.987C249.087 142.987 250.168 144.527 250.168 147.606C251.916 144.527 254.682 142.987 258.468 142.987C261.172 142.987 263.314 143.829 264.895 145.512C266.517 147.195 267.328 149.618 267.328 152.779V161.524C267.328 163.864 267.703 165.63 268.452 166.821C269.2 168.011 270.303 168.606 271.759 168.606C273.256 168.606 274.567 167.703 275.69 165.897C276.813 164.049 277.707 160.277 277.707 155.925C277.749 155.679 277.728 156.228 278.311 156.228ZM277.957 136.952C277.249 136.254 276.896 135.392 276.896 134.365C276.896 133.339 277.249 132.477 277.957 131.779C278.664 131.04 279.537 130.67 280.577 130.67C281.617 130.67 282.491 131.04 283.198 131.779C283.947 132.477 284.321 133.339 284.321 134.365C284.321 135.392 283.947 136.254 283.198 136.952C282.491 137.65 281.617 137.999 280.577 137.999C279.537 137.999 278.664 137.65 277.957 136.952ZM277.707 146.744C277.707 145.512 278.019 144.588 278.643 143.973C279.267 143.316 280.057 142.987 281.014 142.987C281.971 142.987 282.741 143.275 283.323 143.849V161.524C283.323 163.864 283.781 165.63 284.696 166.821C285.611 168.011 286.859 168.606 288.44 168.606C290.021 168.606 291.497 167.662 292.87 165.774C294.243 163.885 295.07 161.021 295.07 156.792C295.153 156.546 295.325 156.228 295.865 156.228C296.614 156.228 296.989 157.316 296.989 159.492C296.989 162.653 296.115 165.363 294.368 167.621C292.621 169.879 290.395 171.008 287.691 171.008C284.321 171.008 281.805 170.023 280.141 168.052C278.518 166.082 277.707 163.29 277.707 159.677V146.744ZM313.603 144.773C314.143 143.582 314.996 142.987 316.161 142.987C317.367 142.987 318.262 143.275 318.844 143.849V161.524C318.844 163.864 319.219 165.63 319.968 166.821C320.717 168.011 321.736 168.606 323.026 168.606C326.936 168.606 328.891 164.603 328.891 156.597C328.933 156.351 329.245 156.228 329.827 156.228C330.576 156.228 330.95 157.316 330.95 159.492C330.95 162.982 330.181 165.774 328.642 167.867C327.144 169.961 325.022 171.008 322.277 171.008C318.075 171.008 315.287 169.181 313.915 165.527C313.124 167.211 312.043 168.545 310.67 169.53C309.297 170.516 307.737 171.008 305.99 171.008C298.71 171.008 295.07 166.307 295.07 156.905C295.07 152.143 296.193 148.632 298.439 146.374C300.727 144.116 303.743 142.987 307.487 142.987C310.358 142.987 312.396 143.582 313.603 144.773ZM301.871 164.48C302.454 166.287 303.119 167.436 303.868 167.929C304.617 168.381 305.615 168.606 306.863 168.606C308.111 168.606 309.463 167.847 310.919 166.328C312.417 164.768 313.166 162.756 313.166 160.293V151.855C313.166 149.926 312.646 148.366 311.606 147.175C310.607 145.984 309.463 145.389 308.174 145.389C306.926 145.389 305.927 145.512 305.179 145.758C304.43 146.005 303.723 146.518 303.057 147.298C301.684 148.776 300.998 151.979 300.998 156.905C300.998 160.149 301.289 162.674 301.871 164.48Z" fill="white"/>
</g>
<defs>
<filter id="filter0_dd_1_2" x="0.077095" y="0.077095" width="266.608" height="266.608" filterUnits="userSpaceOnUse" color-interpolation-filters="sRGB">
<feFlood flood-opacity="0" result="BackgroundImageFix"/>
<feColorMatrix in="SourceAlpha" type="matrix" values="0 0 0 0 0 0 0 0 0 0 0 0 0 0 0 0 0 0 127 0" result="hardAlpha"/>
<feOffset dx="8.80954" dy="8.80954"/>
<feGaussianBlur stdDeviation="17.6191"/>
<feColorMatrix type="matrix" values="0 0 0 0 0.0442119 0 0 0 0 0.105181 0 0 0 0 0.495833 0 0 0 1 0"/>
<feBlend mode="normal" in2="BackgroundImageFix" result="effect1_dropShadow_1_2"/>
<feColorMatrix in="SourceAlpha" type="matrix" values="0 0 0 0 0 0 0 0 0 0 0 0 0 0 0 0 0 0 127 0" result="hardAlpha"/>
<feOffset dx="-26.4286" dy="-26.4286"/>
<feGaussianBlur stdDeviation="26.4286"/>
<feColorMatrix type="matrix" values="0 0 0 0 0.280347 0 0 0 0 0.36625 0 0 0 0 0.916667 0 0 0 1 0"/>
<feBlend mode="normal" in2="effect1_dropShadow_1_2" result="effect2_dropShadow_1_2"/>
<feBlend mode="normal" in="SourceGraphic" in2="effect2_dropShadow_1_2" result="shape"/>
</filter>
<linearGradient id="paint0_linear_1_2" x1="232.516" y1="199.079" x2="71.1142" y2="90.3955" gradientUnits="userSpaceOnUse">
<stop stop-color="#1631DE"/>
<stop offset="1" stop-color="#1631DE"/>
</linearGradient>
<clipPath id="clip0_1_2">
<rect width="143" height="68" fill="white" transform="translate(189.042 126)"/>
</clipPath>
</defs>
</svg>
